<svg width="63" height="47" fill="none" xmlns="http://www.w3.org/2000/svg"><path d="M5.017 38.735c.244.276.373.622.367.977a1.43 1.43 0 01-.131.676 1.559 1.559 0 01-.438.558 2.627 2.627 0 01-1.651.45H.26v-6.19h2.844a2.593 2.593 0 011.576.41c.184.142.33.32.425.52.096.202.139.42.127.64.016.34-.1.677-.33.946-.221.246-.526.416-.866.484.385.064.733.252.98.53zm-3.406-.934h1.216c.276.018.55-.055.773-.206a.737.737 0 00.207-.275.679.679 0 00.054-.33.702.702 0 00-.055-.329.76.76 0 00-.203-.276 1.255 1.255 0 00-.796-.209H1.61v1.625zm2.108 2.374a.776.776 0 00.224-.284.71.71 0 00.063-.345.722.722 0 00-.066-.35.788.788 0 00-.228-.285 1.338 1.338 0 00-.826-.224H1.611v1.703h1.292c.29.015.578-.06.816-.215zM10.83 41.397l-1.581-2.42h-.595v2.42H7.293v-6.191H9.87a2.699 2.699 0 011.793.526c.36.336.578.779.613 1.248.035.47-.114.936-.421 1.314a2.148 2.148 0 01-1.229.629l1.685 2.474h-1.48zm-2.176-3.264h1.113c.773 0 1.16-.312 1.16-.937a.852.852 0 00-.063-.375.917.917 0 00-.221-.321 1.282 1.282 0 00-.876-.251H8.641l.013 1.884zM18.27 40.15h-2.712l-.479 1.247h-1.427l2.49-6.122h1.544l2.48 6.122H18.74l-.469-1.246zm-.363-.937l-.991-2.613-.991 2.613h1.982zM27.582 41.397h-1.35l-3.03-4.21v4.21h-1.348v-6.192h1.348l3.03 4.235v-4.235h1.35v6.192zM35.293 39.915c-.28.467-.705.848-1.223 1.092a4.288 4.288 0 01-1.9.39h-2.404v-6.191h2.405a4.376 4.376 0 011.9.38c.517.24.943.616 1.222 1.08.278.504.423 1.06.423 1.625 0 .564-.145 1.12-.423 1.624zm-1.546-.148a2.16 2.16 0 00.597-1.478c0-.542-.212-1.066-.597-1.477a2.488 2.488 0 00-1.692-.527h-.938v4.008h.938a2.49 2.49 0 001.692-.526zM19.116.767s17.438 6.028 17.069 14.751v14.754s-17.426-6.03-17.063-14.754L19.116.767zM51.72 26.818c3.294-2.075 7.103-3.36 11.08-3.738v-4.62c-4.582 1.618-8.47 4.55-11.08 8.358z" fill="#AFB1B8"/><path d="M49.742 28.21c2.695-4.97 7.369-8.805 13.058-10.717V4.185s-24.835 8.587-24.31 21.009V46.2s1.107-.384 2.848-1.104c0-.671 0-1.349.08-2.03.513-5.766 3.507-11.11 8.324-14.857z" fill="#AFB1B8"/><path d="M47.38 36.013c.13-1.457.421-2.898.868-4.301-2.998 3.235-4.814 7.25-5.192 11.479-.037.399-.057.798-.066 1.21a74.73 74.73 0 004.776-2.305c-.44-2.001-.57-4.049-.386-6.083zM48.367 36.089a19.055 19.055 0 00.308 5.508c6.785-3.718 14.41-9.462 14.115-16.403v-.605c-4.848.497-9.383 2.437-12.91 5.523a19.259 19.259 0 00-1.513 5.977z" fill="#AFB1B8"/></svg>