<svg width="95" height="45" fill="none" xmlns="http://www.w3.org/2000/svg"><path d="M47.785 21.408a2.948 2.948 0 01-.605-1.988v-2.884c0-.883.2-1.555.602-2.015.4-.46 1.089-.688 2.065-.686.917 0 1.569.196 1.953.587.42.499.625 1.109.578 1.724v.678h-1.64v-.687c.005-.224-.01-.449-.048-.671a.65.65 0 00-.235-.399.95.95 0 00-.594-.155 1.005 1.005 0 00-.625.164.768.768 0 00-.272.44 3.332 3.332 0 00-.065.713v3.499c-.026.337.047.675.21.982a.771.771 0 00.328.238.9.9 0 00.424.055.893.893 0 00.58-.158.704.704 0 00.245-.425c.038-.232.056-.467.051-.701v-.71h1.641v.648a2.64 2.64 0 01-.567 1.813c-.377.428-1.02.642-1.964.642s-1.658-.229-2.062-.704zM54.617 21.438c-.415-.45-.622-1.103-.622-1.968v-3.033c0-.857.207-1.505.622-1.945.414-.44 1.107-.659 2.079-.657.965 0 1.654.22 2.069.657.414.44.625 1.088.625 1.945v3.032c0 .857-.21 1.514-.632 1.966-.421.451-1.108.677-2.062.677-.955 0-1.661-.229-2.08-.674zm2.843-.728c.149-.28.216-.589.197-.897v-3.714a1.649 1.649 0 00-.193-.88.776.776 0 00-.335-.241.907.907 0 00-.433-.052.918.918 0 00-.434.052.786.786 0 00-.337.242c-.15.274-.217.576-.197.88v3.73c-.02.309.047.617.197.898.095.094.213.17.346.222a1.158 1.158 0 00.843 0c.133-.052.25-.128.346-.222v-.018zM61.364 13.924h1.766l1.328 5.595 1.36-5.595h1.718L67.71 22h-1.271l-.136-5.613L64.992 22h-1.02l-1.358-5.634L62.488 22h-1.284l.16-8.076zM69.69 13.924h2.752c1.585 0 2.378.764 2.378 2.293 0 1.464-.835 2.196-2.504 2.194h-.937V22H69.68l.01-8.077zm2.351 3.451c.168.019.338.006.5-.039.16-.044.31-.117.434-.216a1.31 1.31 0 00.245-.912 2.532 2.532 0 00-.082-.733.594.594 0 00-.125-.222.703.703 0 00-.214-.162 1.76 1.76 0 00-.758-.13h-.659v2.414h.659zM77.27 13.924h1.824L80.966 22h-1.584l-.37-1.862h-1.627L77.005 22h-1.607l1.871-8.076zm1.559 5.279l-.636-3.39-.635 3.39h1.27zM82.477 13.924h1.19l2.275 4.607v-4.607h1.41V22h-1.131l-2.29-4.81V22h-1.457l.003-8.076zM90.654 18.92l-1.892-4.985h1.594l1.154 3.203 1.084-3.203h1.56l-1.869 4.986V22h-1.63v-3.08zM50.408 25.532v.422h-1.386v3.282h-.581v-3.282h-1.393v-.422h3.36zM54.753 29.236h-.449a.2.2 0 01-.126-.035.193.193 0 01-.074-.085l-.401-.88H51.78l-.4.88a.243.243 0 01-.062.1.208.208 0 01-.126.035h-.448l1.699-3.704h.59l1.72 3.69zm-2.813-1.375h1.603l-.68-1.508a2.699 2.699 0 01-.125-.349c-.024.07-.044.138-.065.197l-.06.155-.673 1.505zM57.681 28.872c.107.005.213.005.32 0 .091-.008.182-.023.271-.044.083-.017.165-.04.245-.067.075-.026.15-.059.227-.091v-.833h-.679a.137.137 0 01-.092-.03.087.087 0 01-.026-.03.074.074 0 01-.008-.037v-.284h1.318v1.42a2.578 2.578 0 01-.716.301c-.14.036-.281.061-.425.077a5.13 5.13 0 01-.496.023 2.59 2.59 0 01-.856-.138 2.09 2.09 0 01-.68-.387 1.79 1.79 0 01-.438-.586 1.851 1.851 0 01-.156-.769 1.92 1.92 0 01.153-.774c.097-.22.247-.42.438-.587.194-.167.425-.297.68-.384.29-.095.6-.142.91-.138.158 0 .316.01.472.032.138.02.274.051.404.094.12.038.233.088.34.147.104.058.203.122.296.193l-.163.229a.142.142 0 01-.056.05.17.17 0 01-.077.02.222.222 0 01-.105-.029 2.113 2.113 0 01-.167-.088 1.504 1.504 0 00-.227-.1 2.13 2.13 0 00-.313-.082 2.614 2.614 0 00-.431-.032 2.009 2.009 0 00-.656.103c-.189.065-.36.165-.5.293a1.29 1.29 0 00-.315.46 1.732 1.732 0 000 1.235c.074.174.19.333.34.467.139.127.308.227.495.293.216.064.445.089.673.073zM63.096 28.814h1.855v.422H62.53v-3.704h.58l-.013 3.282zM66.88 29.236h-.58v-3.704h.58v3.704zM69.041 25.55a.28.28 0 01.089.067l2.483 2.792a.881.881 0 010-.132V25.517h.506v3.72h-.292a.275.275 0 01-.126-.021.328.328 0 01-.091-.07l-2.48-2.79v2.88h-.486v-3.704h.302c.033 0 .066.006.095.017zM76.396 25.532v.407h-2.058v1.223h1.668v.393h-1.668v1.265h2.058v.407H73.74v-3.695h2.656zM15.522 2.656l25.795 6.323v22.158l-25.795-6.32V2.655zM13.867.766v25.127l29.1 7.136V7.905L13.868.767z" fill="#AFB1B8"/><path d="M29.464 44.692L.36 37.55V12.427l29.104 7.139v25.126z" fill="#AFB1B8"/><path d="M14.35 2.371l25.458 6.244-10.826 9.35-25.463-6.247L14.35 2.37zM13.867.767L.36 12.427l29.104 7.14L42.968 7.904 13.868.767zM31.101 43.279L42.968 33.03 31.1 30.12v13.16z" fill="#AFB1B8"/></svg>